<?xml version="1.0" standalone="no"?>
<!DOCTYPE svg PUBLIC "-//W3C//DTD SVG 20010904//EN"
 "http://www.w3.org/TR/2001/REC-SVG-20010904/DTD/svg10.dtd">
<svg version="1.0" xmlns="http://www.w3.org/2000/svg"
 width="142.000000pt" height="142.000000pt" viewBox="0 0 142.000000 142.000000"
 preserveAspectRatio="xMidYMid meet">
<metadata>
Created by potrace 1.11, written by Peter Selinger 2001-2013
</metadata>
<g transform="translate(0.000000,142.000000) scale(0.100000,-0.100000)"
fill="#000000" stroke="none">
<path d="M584 1320 c-67 -14 -162 -57 -229 -104 -173 -124 -276 -335 -262
-541 27 -387 378 -658 752 -580 93 19 217 82 287 145 71 63 143 170 177 263
23 65 26 86 25 207 0 120 -3 143 -26 202 -39 102 -85 173 -165 248 -79 76
-196 140 -291 159 -60 12 -207 13 -268 1z m286 -208 c352 -138 373 -631 34
-798 -62 -31 -86 -37 -162 -42 -115 -6 -204 19 -288 81 -225 165 -237 504 -24
683 51 44 81 61 146 84 78 27 213 23 294 -8z"/>
<path d="M461 964 l-31 -26 0 -232 c0 -253 2 -262 58 -285 16 -7 47 -11 68 -9
l39 3 3 131 c2 108 0 133 -13 144 -12 10 -15 39 -15 156 l0 144 -39 0 c-28 0
-49 -8 -70 -26z"/>
<path d="M640 840 c0 -93 -4 -150 -10 -150 -6 0 -10 -53 -10 -140 l0 -140 95
0 95 0 0 140 c0 87 -4 140 -10 140 -6 0 -10 57 -10 150 l0 150 -75 0 -75 0 0
-150z"/>
<path d="M857 983 c-4 -3 -7 -71 -7 -150 0 -89 -4 -143 -10 -143 -6 0 -10 -53
-10 -140 l0 -140 48 0 c47 0 83 16 109 50 9 11 12 79 13 243 l0 229 -29 29
c-23 22 -39 29 -69 29 -21 0 -42 -3 -45 -7z"/>
</g>
</svg>
